<svg width="576" height="162" viewBox="0 0 576 162" fill="none" xmlns="http://www.w3.org/2000/svg">
<path d="M233.88 39.1791L209.334 60.6184L196.698 71.8041L193.798 66.0041L223.316 39.1791H233.88ZM191.312 18.4648H198.666V92.0006H191.312V18.4648ZM203.12 61.447L209.334 57.3041L234.916 92.0006H225.491L203.12 61.447Z" fill="white"/>
<path d="M242.997 39.1791H250.351V92.0006H242.997V39.1791Z" fill="white"/>
<path d="M286.216 92.5184C278.551 92.5875 272.544 90.2053 268.194 85.372C263.913 80.5387 261.773 73.8065 261.773 65.1756C261.773 56.6137 263.913 49.916 268.194 45.0827C272.544 40.1803 278.551 37.7637 286.216 37.8327V44.3577C280.83 44.4268 276.653 46.222 273.683 49.7434C270.783 53.2648 269.368 58.3398 269.437 64.9684C269.506 71.7351 270.991 76.9482 273.891 80.6077C276.86 84.1982 280.968 85.9934 286.216 85.9934V92.5184ZM286.216 85.9934C290.358 85.9244 293.638 84.7506 296.055 82.472C298.541 80.1934 300.094 77.0863 300.716 73.1506L308.069 74.1863C307.172 79.7791 304.858 84.2327 301.13 87.547C297.401 90.7922 292.43 92.4494 286.216 92.5184V85.9934ZM300.716 60.1006C299.887 54.991 298.333 51.1244 296.055 48.5006C293.776 45.8077 290.497 44.4268 286.216 44.3577V37.8327C292.499 37.9018 297.47 39.766 301.13 43.4256C304.858 47.0851 307.172 52.2982 308.069 59.0648L300.716 60.1006Z" fill="white"/>
<path d="M361.94 39.1791L337.394 60.6184L324.758 71.8041L321.858 66.0041L351.376 39.1791H361.94ZM319.372 18.4648H326.726V92.0006H319.372V18.4648ZM331.179 61.447L337.394 57.3041L362.976 92.0006H353.551L331.179 61.447Z" fill="white"/>
<path d="M387.701 86.2006C395.296 86.2006 399.094 83.6113 399.094 78.4327C399.094 76.7065 398.68 75.291 397.851 74.1863C397.022 73.0125 395.607 72.0113 393.605 71.1827C391.602 70.2851 388.702 69.3875 384.905 68.4898C380.278 67.316 376.688 66.1422 374.133 64.9684C371.647 63.7256 369.818 62.1375 368.644 60.2041C367.47 58.2018 366.883 55.5434 366.883 52.2291C366.883 48.0863 368.506 44.7029 371.751 42.0791C374.996 39.3863 379.588 38.0398 385.526 38.0398V44.2541C381.867 44.3922 379.07 45.1518 377.137 46.5327C375.203 47.8446 374.237 49.8125 374.237 52.4363C374.237 53.9553 374.617 55.1982 375.376 56.1648C376.136 57.1315 377.378 57.9946 379.105 58.7541C380.9 59.4446 383.524 60.2732 386.976 61.2398C392.431 62.7589 396.539 64.1744 399.301 65.4863C402.063 66.7982 403.996 68.3863 405.101 70.2506C406.206 72.0458 406.758 74.497 406.758 77.6041C406.758 82.3684 405.032 86.0625 401.58 88.6863C398.127 91.241 393.363 92.5184 387.287 92.5184L387.701 86.2006ZM387.287 92.5184C380.727 92.5184 375.376 91.0339 371.233 88.0648C367.09 85.0268 364.915 80.5387 364.708 74.6006L372.683 73.5648C372.959 77.9148 374.409 81.1256 377.033 83.197C379.657 85.1994 383.213 86.2006 387.701 86.2006L387.287 92.5184ZM398.576 57.7184C398.3 52.8851 397.126 49.4327 395.055 47.3613C393.052 45.2898 389.876 44.2541 385.526 44.2541V38.0398C391.533 38.0398 396.401 39.5934 400.13 42.7006C403.927 45.7387 405.93 50.3994 406.137 56.6827L398.576 57.7184Z" fill="white"/>
<path d="M423.356 24.9898H430.71V86.5113L423.356 86.6149V24.9898ZM423.356 92.0006V85.4756H446.349V92.0006H423.356ZM414.553 45.7041V39.1791H445.313V45.7041H414.553Z" fill="white"/>
<path d="M489.294 57.3041C489.294 53.0922 488.155 49.8815 485.876 47.672C483.667 45.4625 480.422 44.3577 476.141 44.3577C471.722 44.3577 468.235 45.566 465.68 47.9827C463.125 50.3994 461.848 53.7137 461.848 57.9256L454.494 56.8898C454.494 50.9518 456.428 46.291 460.294 42.9077C464.161 39.5244 469.512 37.8327 476.348 37.8327C482.976 37.8327 488.017 39.4898 491.469 42.8041C494.922 46.1184 496.648 50.9863 496.648 57.4077V92.0006H489.294V57.3041ZM470.237 92.5184C464.99 92.5184 460.812 91.3101 457.705 88.8934C454.667 86.4077 453.148 82.8517 453.148 78.2256L460.916 77.7077C460.916 80.4006 461.813 82.472 463.609 83.922C465.473 85.3029 468.062 85.9934 471.376 85.9934L470.237 92.5184ZM471.376 85.9934C474.069 85.9934 476.797 85.441 479.559 84.3363C482.39 83.1625 484.703 81.5398 486.498 79.4684C488.362 77.397 489.294 75.0148 489.294 72.322L492.919 71.1827C492.85 75.1875 491.676 78.847 489.398 82.1613C487.119 85.4065 484.219 87.9613 480.698 89.8256C477.176 91.6208 473.69 92.5184 470.237 92.5184L471.376 85.9934ZM453.148 78.2256C453.148 73.6684 454.84 69.9744 458.223 67.1434C461.675 64.3125 466.336 62.3791 472.205 61.3434L494.059 57.4077V63.622L474.38 67.0398C465.404 68.6279 460.916 72.1839 460.916 77.7077L453.148 78.2256Z" fill="white"/>
<path d="M506.658 39.1791H514.012V92.0006H506.658V39.1791ZM508.73 45.7041V39.1791H537.937V45.7041H508.73Z" fill="white"/>
<path d="M552.889 24.9898H560.243V86.5113L552.889 86.6149V24.9898ZM552.889 92.0006V85.4756H575.882V92.0006H552.889ZM544.086 45.7041V39.1791H574.846V45.7041H544.086Z" fill="white"/>
<path d="M199.763 142.75C202.396 142.75 204.463 142.25 205.963 141.25C207.496 140.217 208.263 138.817 208.263 137.05C208.263 135.783 207.996 134.783 207.463 134.05C206.93 133.317 206.046 132.7 204.813 132.2C203.613 131.667 201.796 131.083 199.363 130.45C196.196 129.617 193.763 128.75 192.063 127.85C190.363 126.917 189.163 125.85 188.463 124.65C187.796 123.45 187.463 121.917 187.463 120.05C187.463 117.15 188.513 114.883 190.613 113.25C192.746 111.583 195.68 110.75 199.413 110.75L199.163 114.25C196.73 114.25 194.813 114.733 193.413 115.7C192.046 116.667 191.363 117.983 191.363 119.65C191.363 120.783 191.58 121.733 192.013 122.5C192.48 123.267 193.28 123.95 194.413 124.55C195.58 125.117 197.23 125.683 199.363 126.25C202.763 127.15 205.363 128.067 207.163 129C208.996 129.9 210.28 130.983 211.013 132.25C211.78 133.483 212.163 135.05 212.163 136.95C212.163 139.85 211.03 142.133 208.763 143.8C206.53 145.433 203.43 146.25 199.463 146.25L199.763 142.75ZM199.463 146.25C195.53 146.25 192.363 145.267 189.963 143.3C187.563 141.333 186.23 138.617 185.963 135.15L189.813 134.5C189.98 136.967 190.946 138.967 192.713 140.5C194.513 142 196.863 142.75 199.763 142.75L199.463 146.25ZM207.863 122.5C207.696 119.9 206.88 117.883 205.413 116.45C203.946 114.983 201.863 114.25 199.163 114.25L199.413 110.75C201.88 110.75 204.03 111.217 205.863 112.15C207.73 113.05 209.163 114.35 210.163 116.05C211.196 117.717 211.713 119.667 211.713 121.9L207.863 122.5Z" fill="white"/>
<path d="M225.824 111H229.524V146H225.824V111ZM241.474 111V114.5H213.774V111H241.474Z" fill="white"/>
<path d="M258.561 142.75C261.428 142.75 263.678 141.983 265.311 140.45C266.978 138.883 267.811 136.733 267.811 134L271.511 134.5C271.511 138.167 270.361 141.05 268.061 143.15C265.761 145.217 262.595 146.25 258.561 146.25V142.75ZM258.561 146.25C254.561 146.25 251.411 145.217 249.111 143.15C246.845 141.05 245.711 138.167 245.711 134.5L249.411 134C249.378 136.733 250.178 138.883 251.811 140.45C253.445 141.983 255.695 142.75 258.561 142.75V146.25ZM245.711 134.5V111H249.411V134L245.711 134.5ZM267.811 111H271.511V134.5L267.811 134V111Z" fill="white"/>
<path d="M289.936 142.5C292.402 142.5 294.586 141.9 296.486 140.7C298.419 139.5 299.919 137.833 300.986 135.7C302.086 133.567 302.636 131.15 302.636 128.45C302.636 125.783 302.086 123.4 300.986 121.3C299.919 119.2 298.419 117.55 296.486 116.35C294.586 115.15 292.402 114.533 289.936 114.5L290.186 111C293.352 111 296.169 111.75 298.636 113.25C301.136 114.717 303.069 116.783 304.436 119.45C305.836 122.117 306.536 125.133 306.536 128.5C306.536 131.867 305.836 134.883 304.436 137.55C303.069 140.217 301.136 142.3 298.636 143.8C296.169 145.267 293.352 146 290.186 146L289.936 142.5ZM280.736 142.55L289.936 142.5L290.186 146H280.736V142.55ZM278.286 111H281.986V146H278.286V111ZM280.736 111H290.186L289.936 114.5H280.736V111Z" fill="white"/>
<path d="M312.514 111H316.214V146H312.514V111Z" fill="white"/>
<path d="M338.207 110.75C341.474 110.75 344.307 111.467 346.707 112.9C349.107 114.3 350.941 116.333 352.207 119C353.507 121.667 354.157 124.833 354.157 128.5C354.157 132.167 353.507 135.333 352.207 138C350.941 140.667 349.107 142.717 346.707 144.15C344.307 145.55 341.474 146.25 338.207 146.25C334.907 146.25 332.057 145.55 329.657 144.15C327.257 142.717 325.407 140.667 324.107 138C322.841 135.333 322.207 132.167 322.207 128.5C322.207 124.833 322.841 121.667 324.107 119C325.407 116.333 327.257 114.3 329.657 112.9C332.057 111.467 334.907 110.75 338.207 110.75ZM338.207 142.75C341.941 142.75 344.874 141.483 347.007 138.95C349.174 136.417 350.257 132.95 350.257 128.55C350.257 124.083 349.174 120.583 347.007 118.05C344.874 115.517 341.941 114.25 338.207 114.25C334.441 114.25 331.474 115.533 329.307 118.1C327.174 120.633 326.107 124.117 326.107 128.55C326.107 132.95 327.191 136.417 329.357 138.95C331.524 141.483 334.474 142.75 338.207 142.75Z" fill="white"/>
<path fill-rule="evenodd" clip-rule="evenodd" d="M70.1171 0L35.0987 20.2164L105.129 60.6453L140.147 40.4289L70.1171 0ZM105.136 60.6475L140.153 40.4289L140.15 121.291L105.133 141.51L105.136 60.6475ZM0 40.5453L70.0275 80.9786L70.03 161.841L0.00257425 121.407L0 40.5453Z" fill="white"/>
</svg>
